<?xml version="1.0" encoding="UTF-8" standalone="no"?>
<svg
   xmlns:dc="http://purl.org/dc/elements/1.1/"
   xmlns:cc="http://creativecommons.org/ns#"
   xmlns:rdf="http://www.w3.org/1999/02/22-rdf-syntax-ns#"
   xmlns:svg="http://www.w3.org/2000/svg"
   xmlns="http://www.w3.org/2000/svg"
   xmlns:sodipodi="http://sodipodi.sourceforge.net/DTD/sodipodi-0.dtd"
   xmlns:inkscape="http://www.inkscape.org/namespaces/inkscape"
   width="24"
   height="24"
   viewBox="0 0 24 24"
   fill="none"
   stroke="currentColor"
   stroke-width="2"
   stroke-linecap="round"
   stroke-linejoin="round"
   class="feather feather-chevron-up"
   version="1.1"
   id="svg4"
   sodipodi:docname="link.svg"
   inkscape:version="1.0.2 (e86c870879, 2021-01-15)">
  <metadata
     id="metadata10">
    <rdf:RDF>
      <cc:Work
         rdf:about="">
        <dc:format>image/svg+xml</dc:format>
        <dc:type
           rdf:resource="http://purl.org/dc/dcmitype/StillImage" />
      </cc:Work>
    </rdf:RDF>
  </metadata>
  <defs
     id="defs8" />
  <sodipodi:namedview
     pagecolor="#ffffff"
     bordercolor="#666666"
     borderopacity="1"
     objecttolerance="10"
     gridtolerance="10"
     guidetolerance="10"
     inkscape:pageopacity="0"
     inkscape:pageshadow="2"
     inkscape:window-width="1858"
     inkscape:window-height="1048"
     id="namedview6"
     showgrid="false"
     inkscape:zoom="29.791667"
     inkscape:cx="8.951386"
     inkscape:cy="11.567824"
     inkscape:window-x="62"
     inkscape:window-y="32"
     inkscape:window-maximized="1"
     inkscape:current-layer="layer2"
     inkscape:document-rotation="0" />
  <path
     style="fill:#ffffff;stroke:#000000;stroke-width:1;stroke-linecap:butt;stroke-linejoin:round;stroke-miterlimit:4;stroke-dasharray:none;stroke-opacity:1;fill-opacity:1"
     d="M 4.9638248,15.940329 4.7894571,3.7157943 C 4.7799569,3.0497613 5.1638294,2.3579985 5.7262831,2.0011568 6.2132288,1.6922203 6.9581377,1.6600584 7.455612,1.9517388 8.0120814,2.2780088 8.3435852,3.0217845 8.3520349,3.6667953 L 8.454236,11.468359"
     id="path838"
     sodipodi:nodetypes="cssssc" />
  <path
     style="fill:#ffffff;stroke:#000000;stroke-width:1px;stroke-linecap:round;stroke-linejoin:bevel;stroke-opacity:1;fill-opacity:1"
     d="m 8.454236,11.468359 c 0,0 0.7248664,-1.040396 1.2801566,-1.271319 0.6781394,-0.2820111 1.5345114,-0.317386 2.2032804,-0.01382 0.442,0.200632 0.951757,1.102141 0.951757,1.102141 0,0 0.780289,-0.482374 1.219025,-0.586533 0.700625,-0.166333 1.516489,-0.361553 2.159956,-0.0383 0.244011,0.122582 0.477322,0.665788 0.477322,0.665788 0,0 0.614872,-0.464857 0.979413,-0.551122 0.52243,-0.123628 1.115945,-0.136032 1.608736,0.07698 0.29194,0.126193 0.686191,0.662967 0.686191,0.662967 0,0 0.713454,6.19088 0.197952,7.196435 -0.578947,1.129313 -1.651675,2.422534 -2.930252,3.336408 C 16.199248,22.112599 4.9349151,21.937151 4.9349151,21.937151 4.9236415,21.913106 2.0986523,20.708965 1.7332277,19.981407 1.3198271,19.158329 1.3494566,14.974638 1.6256887,14.083372 1.9839357,12.927484 4.884715,10.509009 4.884715,10.509009"
     id="path840"
     sodipodi:nodetypes="csscsscsscsccssc" />
  <g
     inkscape:groupmode="layer"
     id="layer4"
     inkscape:label="Layer 4">
    <path
       style="fill:none;stroke:#000000;stroke-width:1px;stroke-linecap:round;stroke-linejoin:miter;stroke-opacity:1"
       d="m 12.88943,11.285361 0.07688,2.26405"
       id="path899" />
    <path
       style="fill:none;stroke:#000000;stroke-width:1px;stroke-linecap:round;stroke-linejoin:miter;stroke-opacity:1"
       d="m 16.745733,11.326316 0.122473,2.082925"
       id="path901" />
  </g>
  <g
     inkscape:groupmode="layer"
     id="layer1"
     inkscape:label="Layer 1">
    <path
       style="fill:#ffffff;stroke:#ffffff;stroke-width:1px;stroke-linecap:butt;stroke-linejoin:miter;stroke-opacity:1;fill-opacity:1"
       d="m 8.4142212,9.4047793 1.9094138,-1.0969304 3.565848,0.1247945 1.528473,0.8742341 1.775076,-0.6970581 -0.381248,2.2376746 -1.933007,1.483254 -2.772878,0.64281 -1.994548,-0.974323 -1.6735673,-1.877883 z"
       id="path897" />
  </g>
  <g
     inkscape:groupmode="layer"
     id="layer3"
     inkscape:label="Layer 3">
    <path
       style="fill:none;stroke:#000000;stroke-width:2;stroke-linecap:butt;stroke-linejoin:round;stroke-miterlimit:4;stroke-dasharray:none;stroke-opacity:1"
       d="m 8.8452808,10.028573 c 0,0 0.4463401,-0.9194192 1.0917168,-1.2065506 C 11.253558,8.236278 12.867629,8.2989492 14.257577,8.6790442 14.821052,8.833132 15.73588,9.6202367 15.73588,9.6202367 l 1.457152,-1.0104173"
       id="path849"
       sodipodi:nodetypes="csscc" />
  </g>
  <g
     inkscape:groupmode="layer"
     id="layer2"
     inkscape:label="Layer 2">
    <ellipse
       style="fill:none;fill-rule:evenodd;stroke:#4f4f4f;stroke-width:1.40349;stroke-linecap:round;stroke-linejoin:round;stroke-miterlimit:4;stroke-dasharray:none;stroke-opacity:1"
       id="path836"
       cx="12.778979"
       cy="8.5183496"
       rx="4.5029793"
       ry="4.4395995" />
    <path
       style="fill:none;stroke:#8d8d8d;stroke-width:2;stroke-linecap:butt;stroke-linejoin:miter;stroke-miterlimit:4;stroke-dasharray:none;stroke-opacity:1"
       d="m 15.604918,12.697038 5.961068,9.392242"
       id="path844" />
  </g>
</svg>
