<?xml version="1.0" encoding="UTF-8" standalone="no"?>
<svg
   xmlns:dc="http://purl.org/dc/elements/1.1/"
   xmlns:cc="http://creativecommons.org/ns#"
   xmlns:rdf="http://www.w3.org/1999/02/22-rdf-syntax-ns#"
   xmlns:svg="http://www.w3.org/2000/svg"
   xmlns="http://www.w3.org/2000/svg"
   xmlns:sodipodi="http://sodipodi.sourceforge.net/DTD/sodipodi-0.dtd"
   xmlns:inkscape="http://www.inkscape.org/namespaces/inkscape"
   width="24"
   height="24"
   viewBox="0 0 24 24"
   fill="none"
   stroke="currentColor"
   stroke-width="2"
   stroke-linecap="round"
   stroke-linejoin="round"
   class="feather feather-chevron-up"
   version="1.1"
   id="svg4"
   sodipodi:docname="link.svg"
   inkscape:version="1.0.2 (e86c870879, 2021-01-15)">
  <metadata
     id="metadata10">
    <rdf:RDF>
      <cc:Work
         rdf:about="">
        <dc:format>image/svg+xml</dc:format>
        <dc:type
           rdf:resource="http://purl.org/dc/dcmitype/StillImage" />
      </cc:Work>
    </rdf:RDF>
  </metadata>
  <defs
     id="defs8" />
  <sodipodi:namedview
     pagecolor="#ffffff"
     bordercolor="#666666"
     borderopacity="1"
     objecttolerance="10"
     gridtolerance="10"
     guidetolerance="10"
     inkscape:pageopacity="0"
     inkscape:pageshadow="2"
     inkscape:window-width="1920"
     inkscape:window-height="1019"
     id="namedview6"
     showgrid="false"
     inkscape:zoom="29.791667"
     inkscape:cx="8.951386"
     inkscape:cy="11.567824"
     inkscape:window-x="0"
     inkscape:window-y="0"
     inkscape:window-maximized="1"
     inkscape:current-layer="svg4"
     inkscape:document-rotation="0" />
  <path
     style="fill:#ffffff;fill-opacity:1;stroke:#000000;stroke-width:0.91562;stroke-linecap:butt;stroke-linejoin:round;stroke-miterlimit:4;stroke-dasharray:none;stroke-opacity:1"
     d="M 6.0604035,15.25056 5.9055013,3.7141403 C 5.8970616,3.0855981 6.2380807,2.4327744 6.7377452,2.0960192 7.1703309,1.8044727 7.8320823,1.7741212 8.2740213,2.049383 8.7683695,2.3572873 9.0628661,3.0591961 9.0703725,3.6678994 l 0.090792,7.3624166"
     id="path838"
     sodipodi:nodetypes="cssssc" />
  <path
     style="fill:#ffffff;fill-opacity:1;stroke:#000000;stroke-width:0.91562px;stroke-linecap:round;stroke-linejoin:bevel;stroke-opacity:1"
     d="m 9.1611644,11.030316 c 0,0 0.6439463,-0.981833 1.1372466,-1.199757 0.602437,-0.266137 1.363208,-0.299521 1.957319,-0.01304 0.392658,0.189338 0.845508,1.040102 0.845508,1.040102 0,0 0.693182,-0.455222 1.08294,-0.553517 0.622411,-0.156971 1.347197,-0.341202 1.918831,-0.03614 0.216771,0.115682 0.424036,0.628311 0.424036,0.628311 0,0 0.546231,-0.43869 0.870077,-0.520099 0.464108,-0.116669 0.991367,-0.128375 1.429145,0.07265 0.25935,0.119089 0.609589,0.625649 0.609589,0.625649 0,0 0.809038,4.552605 0.249208,7.340583 -0.382214,1.903443 -1.067989,3.832443 -3.340282,4.393411 C 14.02529,23.381089 8.7822754,23.091828 7.1873872,22.682663 5.6874115,22.297848 3.8233608,21.481188 3.1054096,20.080193 1.8749661,17.67913 2.4354583,14.932923 3.0949186,13.498131 3.5694625,12.465663 5.9901251,10.124967 5.9901251,10.124967"
     id="path840"
     sodipodi:nodetypes="csscsscsscsssssc" />
  <g
     inkscape:groupmode="layer"
     id="layer4"
     inkscape:label="Layer 4">
    <path
       style="fill:none;stroke:#000000;stroke-width:0.91562px;stroke-linecap:round;stroke-linejoin:miter;stroke-opacity:1"
       d="m 13.101238,10.857619 c 0,0 -0.09884,1.431186 0.13794,2.40383"
       id="path899"
       sodipodi:nodetypes="cc" />
    <path
       style="fill:none;stroke:#000000;stroke-width:0.91562px;stroke-linecap:round;stroke-linejoin:miter;stroke-opacity:1"
       d="m 16.527045,10.896268 c 0,0 -0.08656,1.12142 0.133901,2.343807"
       id="path901"
       sodipodi:nodetypes="cc" />
  </g>
  <g
     inkscape:groupmode="layer"
     id="layer1"
     inkscape:label="Layer 1">
    <path
       style="fill:none;stroke:#000000;stroke-width:0.91562px;stroke-linecap:round;stroke-linejoin:miter;stroke-opacity:1"
       d="m 5.9901251,10.124967 c 0,0 -1.1562007,3.282854 -0.1354115,5.64464"
       id="path841"
       sodipodi:nodetypes="cc" />
    <path
       style="fill:none;stroke:#000000;stroke-width:0.91562px;stroke-linecap:round;stroke-linejoin:miter;stroke-opacity:1"
       d="m 9.1611644,11.030316 c 0,0 -0.086365,1.463022 0.019118,2.502862"
       id="path843"
       sodipodi:nodetypes="cc" />
  </g>
  <g
     inkscape:groupmode="layer"
     id="layer3"
     inkscape:label="Layer 3" />
  <g
     inkscape:groupmode="layer"
     id="layer2"
     inkscape:label="Layer 2" />
</svg>
